<?xml version="1.0" encoding="UTF-8" standalone="no"?>
<!DOCTYPE svg PUBLIC "-//W3C//DTD SVG 1.1//EN"
 "http://www.w3.org/Graphics/SVG/1.1/DTD/svg11.dtd">
<!-- Generated by graphviz version 11.0.0 (20240428.1522)
 -->
<!-- Title: top Pages: 1 -->
<svg width="2191pt" height="337pt"
 viewBox="0.00 0.00 2191.38 336.75" xmlns="http://www.w3.org/2000/svg" xmlns:xlink="http://www.w3.org/1999/xlink">
<g id="graph0" class="graph" transform="scale(1 1) rotate(0) translate(4 332.75)">
<title>top</title>
<polygon fill="white" stroke="none" points="-4,4 -4,-332.75 2187.38,-332.75 2187.38,4 -4,4"/>
<text text-anchor="middle" x="1091.69" y="-6.45" font-family="Times New Roman,serif" font-size="14.00">top</text>
<!-- n3 -->
<g id="node1" class="node">
<title>n3</title>
<polygon fill="none" stroke="black" points="54,-237.29 54,-252.21 38.18,-262.75 15.82,-262.75 0,-252.21 0,-237.29 15.82,-226.75 38.18,-226.75 54,-237.29"/>
<text text-anchor="middle" x="27" y="-239.32" font-family="Times New Roman,serif" font-size="14.00">clk</text>
</g>
<!-- c19 -->
<g id="node13" class="node">
<title>c19</title>
<polygon fill="none" stroke="black" points="1364.64,-84.12 1364.64,-155.38 1480.14,-155.38 1480.14,-84.12 1364.64,-84.12"/>
<text text-anchor="middle" x="1386.52" y="-138.07" font-family="Times New Roman,serif" font-size="14.00">CLK</text>
<polyline fill="none" stroke="black" points="1364.64,-131.62 1408.39,-131.62"/>
<text text-anchor="middle" x="1386.52" y="-114.33" font-family="Times New Roman,serif" font-size="14.00">D</text>
<polyline fill="none" stroke="black" points="1364.64,-107.88 1408.39,-107.88"/>
<text text-anchor="middle" x="1386.52" y="-90.58" font-family="Times New Roman,serif" font-size="14.00">EN</text>
<polyline fill="none" stroke="black" points="1408.39,-84.12 1408.39,-155.38"/>
<text text-anchor="middle" x="1431.02" y="-122.2" font-family="Times New Roman,serif" font-size="14.00">$193</text>
<text text-anchor="middle" x="1431.02" y="-106.45" font-family="Times New Roman,serif" font-size="14.00">$dffe</text>
<polyline fill="none" stroke="black" points="1453.64,-84.12 1453.64,-155.38"/>
<text text-anchor="middle" x="1466.89" y="-114.58" font-family="Times New Roman,serif" font-size="14.00">Q</text>
</g>
<!-- n3&#45;&gt;c19 -->
<g id="edge17" class="edge">
<title>n3:e&#45;&gt;c19:w</title>
<path fill="none" stroke="#d95f02" d="M54,-244.75C110.17,-244.75 124.21,-244.75 180.38,-244.75 180.38,-244.75 180.38,-244.75 1326.84,-244.75 1343.95,-244.75 1339.99,-227.51 1346.64,-211.75 1356.93,-187.36 1340.34,-155.54 1353.75,-146.19"/>
<polygon fill="#d95f02" stroke="#d95f02" points="1354.3,-149.66 1363.17,-143.86 1352.62,-142.86 1354.3,-149.66"/>
</g>
<!-- c25 -->
<g id="node16" class="node">
<title>c25</title>
<polygon fill="none" stroke="black" points="1365.77,-216 1365.77,-263.5 1479.02,-263.5 1479.02,-216 1365.77,-216"/>
<text text-anchor="middle" x="1387.64" y="-246.2" font-family="Times New Roman,serif" font-size="14.00">CLK</text>
<polyline fill="none" stroke="black" points="1365.77,-239.75 1409.52,-239.75"/>
<text text-anchor="middle" x="1387.64" y="-222.45" font-family="Times New Roman,serif" font-size="14.00">D</text>
<polyline fill="none" stroke="black" points="1409.52,-216 1409.52,-263.5"/>
<text text-anchor="middle" x="1431.02" y="-242.2" font-family="Times New Roman,serif" font-size="14.00">$183</text>
<text text-anchor="middle" x="1431.02" y="-226.45" font-family="Times New Roman,serif" font-size="14.00">$dff</text>
<polyline fill="none" stroke="black" points="1452.52,-216 1452.52,-263.5"/>
<text text-anchor="middle" x="1465.77" y="-234.7" font-family="Times New Roman,serif" font-size="14.00">Q</text>
</g>
<!-- n3&#45;&gt;c25 -->
<g id="edge18" class="edge">
<title>n3:e&#45;&gt;c25:w</title>
<path fill="none" stroke="#d95f02" d="M54,-244.75C64.13,-244.75 62.83,-254.44 72,-258.75 116.65,-279.74 131.04,-282.75 180.38,-282.75 180.38,-282.75 180.38,-282.75 1326.84,-282.75 1344.05,-282.75 1344.14,-263.37 1354.12,-255.2"/>
<polygon fill="#d95f02" stroke="#d95f02" points="1354.96,-258.6 1363.33,-252.11 1352.74,-251.97 1354.96,-258.6"/>
</g>
<!-- c26 -->
<g id="node17" class="node">
<title>c26</title>
<polygon fill="none" stroke="black" points="666.85,-131 666.85,-178.5 780.1,-178.5 780.1,-131 666.85,-131"/>
<text text-anchor="middle" x="688.72" y="-161.2" font-family="Times New Roman,serif" font-size="14.00">CLK</text>
<polyline fill="none" stroke="black" points="666.85,-154.75 710.6,-154.75"/>
<text text-anchor="middle" x="688.72" y="-137.45" font-family="Times New Roman,serif" font-size="14.00">D</text>
<polyline fill="none" stroke="black" points="710.6,-131 710.6,-178.5"/>
<text text-anchor="middle" x="732.1" y="-157.2" font-family="Times New Roman,serif" font-size="14.00">$185</text>
<text text-anchor="middle" x="732.1" y="-141.45" font-family="Times New Roman,serif" font-size="14.00">$dff</text>
<polyline fill="none" stroke="black" points="753.6,-131 753.6,-178.5"/>
<text text-anchor="middle" x="766.85" y="-149.7" font-family="Times New Roman,serif" font-size="14.00">Q</text>
</g>
<!-- n3&#45;&gt;c26 -->
<g id="edge19" class="edge">
<title>n3:e&#45;&gt;c26:w</title>
<path fill="none" stroke="#d95f02" d="M54,-244.75C64.13,-244.75 62.6,-234.54 72,-230.75 253.15,-157.77 314.87,-206.11 509,-184.75 575.21,-177.46 594.13,-167.79 655.34,-166.72"/>
<polygon fill="#d95f02" stroke="#d95f02" points="655.36,-170.22 665.33,-166.64 655.3,-163.22 655.36,-170.22"/>
</g>
<!-- c29 -->
<g id="node19" class="node">
<title>c29</title>
<polygon fill="none" stroke="black" points="1803.18,-227.12 1803.18,-298.38 1974.18,-298.38 1974.18,-227.12 1803.18,-227.12"/>
<text text-anchor="middle" x="1838.56" y="-281.07" font-family="Times New Roman,serif" font-size="14.00">clk</text>
<polyline fill="none" stroke="black" points="1803.18,-274.62 1873.93,-274.62"/>
<text text-anchor="middle" x="1838.56" y="-257.32" font-family="Times New Roman,serif" font-size="14.00">cmd_buf</text>
<polyline fill="none" stroke="black" points="1803.18,-250.88 1873.93,-250.88"/>
<text text-anchor="middle" x="1838.56" y="-233.57" font-family="Times New Roman,serif" font-size="14.00">new_cmd</text>
<polyline fill="none" stroke="black" points="1873.93,-227.12 1873.93,-298.38"/>
<text text-anchor="middle" x="1904.81" y="-265.2" font-family="Times New Roman,serif" font-size="14.00">mgr</text>
<text text-anchor="middle" x="1904.81" y="-249.45" font-family="Times New Roman,serif" font-size="14.00">led_mgr</text>
<polyline fill="none" stroke="black" points="1935.68,-227.12 1935.68,-298.38"/>
<text text-anchor="middle" x="1954.93" y="-257.57" font-family="Times New Roman,serif" font-size="14.00">leds</text>
</g>
<!-- n3&#45;&gt;c29 -->
<g id="edge20" class="edge">
<title>n3:e&#45;&gt;c29:w</title>
<path fill="none" stroke="#d95f02" d="M54,-244.75C68.79,-244.75 62.23,-261.64 72,-272.75 79.29,-281.04 81.65,-282.88 91,-288.75 127.86,-311.88 136.86,-328.75 180.38,-328.75 180.38,-328.75 180.38,-328.75 1621.47,-328.75 1700.09,-328.75 1718.08,-290.37 1791.01,-286.77"/>
<polygon fill="#d95f02" stroke="#d95f02" points="1790.76,-290.28 1800.67,-286.54 1790.59,-283.28 1790.76,-290.28"/>
</g>
<!-- c33 -->
<g id="node20" class="node">
<title>c33</title>
<polygon fill="none" stroke="black" points="91,-77 91,-124.5 271.75,-124.5 271.75,-77 91,-77"/>
<text text-anchor="middle" x="111.38" y="-107.2" font-family="Times New Roman,serif" font-size="14.00">clk</text>
<polyline fill="none" stroke="black" points="91,-100.75 131.75,-100.75"/>
<text text-anchor="middle" x="111.38" y="-83.45" font-family="Times New Roman,serif" font-size="14.00">ir_in</text>
<polyline fill="none" stroke="black" points="131.75,-77 131.75,-124.5"/>
<text text-anchor="middle" x="169" y="-103.2" font-family="Times New Roman,serif" font-size="14.00">receiver</text>
<text text-anchor="middle" x="169" y="-87.45" font-family="Times New Roman,serif" font-size="14.00">ir_receiver</text>
<polyline fill="none" stroke="black" points="206.25,-77 206.25,-124.5"/>
<text text-anchor="middle" x="239" y="-107.2" font-family="Times New Roman,serif" font-size="14.00">data</text>
<polyline fill="none" stroke="black" points="206.25,-100.75 271.75,-100.75"/>
<text text-anchor="middle" x="239" y="-83.45" font-family="Times New Roman,serif" font-size="14.00">data_rdy</text>
</g>
<!-- n3&#45;&gt;c33 -->
<g id="edge21" class="edge">
<title>n3:e&#45;&gt;c33:w</title>
<path fill="none" stroke="#d95f02" d="M54,-244.75C80.44,-244.75 65.92,-145.39 81.48,-119"/>
<polygon fill="#d95f02" stroke="#d95f02" points="83.38,-121.94 89.74,-113.47 79.49,-116.12 83.38,-121.94"/>
</g>
<!-- n4 -->
<g id="node2" class="node">
<title>n4</title>
<polygon fill="none" stroke="black" points="2183.38,-196.29 2183.38,-211.21 2153.85,-221.75 2112.09,-221.75 2082.56,-211.21 2082.56,-196.29 2112.09,-185.75 2153.85,-185.75 2183.38,-196.29"/>
<text text-anchor="middle" x="2132.97" y="-198.32" font-family="Times New Roman,serif" font-size="14.00">display_0</text>
</g>
<!-- n5 -->
<g id="node3" class="node">
<title>n5</title>
<polygon fill="none" stroke="black" points="2183.38,-142.29 2183.38,-157.21 2153.85,-167.75 2112.09,-167.75 2082.56,-157.21 2082.56,-142.29 2112.09,-131.75 2153.85,-131.75 2183.38,-142.29"/>
<text text-anchor="middle" x="2132.97" y="-144.32" font-family="Times New Roman,serif" font-size="14.00">display_1</text>
</g>
<!-- n6 -->
<g id="node4" class="node">
<title>n6</title>
<polygon fill="none" stroke="black" points="2183.38,-88.29 2183.38,-103.21 2153.85,-113.75 2112.09,-113.75 2082.56,-103.21 2082.56,-88.29 2112.09,-77.75 2153.85,-77.75 2183.38,-88.29"/>
<text text-anchor="middle" x="2132.97" y="-90.33" font-family="Times New Roman,serif" font-size="14.00">display_2</text>
</g>
<!-- n7 -->
<g id="node5" class="node">
<title>n7</title>
<polygon fill="none" stroke="black" points="2183.38,-34.29 2183.38,-49.21 2153.85,-59.75 2112.09,-59.75 2082.56,-49.21 2082.56,-34.29 2112.09,-23.75 2153.85,-23.75 2183.38,-34.29"/>
<text text-anchor="middle" x="2132.97" y="-36.33" font-family="Times New Roman,serif" font-size="14.00">display_3</text>
</g>
<!-- n8 -->
<g id="node6" class="node">
<title>n8</title>
<polygon fill="none" stroke="black" points="54,-82.29 54,-97.21 38.18,-107.75 15.82,-107.75 0,-97.21 0,-82.29 15.82,-71.75 38.18,-71.75 54,-82.29"/>
<text text-anchor="middle" x="27" y="-84.33" font-family="Times New Roman,serif" font-size="14.00">ir</text>
</g>
<!-- n8&#45;&gt;c33 -->
<g id="edge26" class="edge">
<title>n8:e&#45;&gt;c33:w</title>
<path fill="none" stroke="#7570b3" d="M54,-89.75C65.82,-89.75 71.27,-89.3 79.5,-89.04"/>
<polygon fill="#7570b3" stroke="#7570b3" points="79.54,-92.54 89.49,-88.9 79.44,-85.54 79.54,-92.54"/>
</g>
<!-- n9 -->
<g id="node7" class="node">
<title>n9</title>
<polygon fill="none" stroke="black" points="2160.69,-255.29 2160.69,-270.21 2144.45,-280.75 2121.48,-280.75 2105.24,-270.21 2105.24,-255.29 2121.48,-244.75 2144.45,-244.75 2160.69,-255.29"/>
<text text-anchor="middle" x="2132.97" y="-257.32" font-family="Times New Roman,serif" font-size="14.00">leds</text>
</g>
<!-- n10 -->
<g id="node8" class="node">
<title>n10</title>
<polygon fill="none" stroke="black" points="1620.47,-257.75 1553.9,-239.75 1620.47,-221.75 1687.04,-239.75 1620.47,-257.75"/>
<text text-anchor="middle" x="1620.47" y="-234.32" font-family="Times New Roman,serif" font-size="14.00">new_cmd</text>
</g>
<!-- n10&#45;&gt;c29 -->
<g id="edge5" class="edge">
<title>n10:e&#45;&gt;c29:w</title>
<path fill="none" stroke="#66a61e" d="M1689.7,-239.75C1735.69,-239.75 1749.95,-239.12 1790.85,-239.01"/>
<polygon fill="#66a61e" stroke="#66a61e" points="1790.67,-242.51 1800.67,-239 1790.66,-235.51 1790.67,-242.51"/>
</g>
<!-- n11 -->
<g id="node9" class="node">
<title>n11</title>
<polygon fill="none" stroke="black" points="587.92,-123.75 527,-105.75 587.92,-87.75 648.85,-105.75 587.92,-123.75"/>
<text text-anchor="middle" x="587.92" y="-100.33" font-family="Times New Roman,serif" font-size="14.00">out_data</text>
</g>
<!-- n11&#45;&gt;c19 -->
<g id="edge7" class="edge">
<title>n11:e&#45;&gt;c19:w</title>
<path fill="none" stroke="#e7298a" stroke-width="3" d="M648.85,-105.75C715.19,-105.75 731.75,-102.75 798.1,-102.75 798.1,-102.75 798.1,-102.75 1326.84,-102.75 1340.66,-102.75 1344.65,-112.31 1353.55,-117.09"/>
<polygon fill="#e7298a" stroke="#e7298a" stroke-width="3" points="1349.69,-119.77 1360.23,-118.69 1351.32,-112.96 1349.69,-119.77"/>
<text text-anchor="middle" x="1057.67" y="-105.2" font-family="Times New Roman,serif" font-size="14.00" fill="#000000">&lt;12&gt;</text>
</g>
<!-- n12 -->
<g id="node10" class="node">
<title>n12</title>
<polygon fill="none" stroke="black" points="423.37,-175.75 337.75,-157.75 423.37,-139.75 509,-157.75 423.37,-175.75"/>
<text text-anchor="middle" x="423.37" y="-152.32" font-family="Times New Roman,serif" font-size="14.00">out_data_rdy</text>
</g>
<!-- c23 -->
<g id="node14" class="node">
<title>c23</title>
<polygon fill="none" stroke="black" points="1158.04,-163 1158.04,-210.5 1287.04,-210.5 1287.04,-163 1158.04,-163"/>
<text text-anchor="middle" x="1170.92" y="-193.2" font-family="Times New Roman,serif" font-size="14.00">A</text>
<polyline fill="none" stroke="black" points="1158.04,-186.75 1183.79,-186.75"/>
<text text-anchor="middle" x="1170.92" y="-169.45" font-family="Times New Roman,serif" font-size="14.00">B</text>
<polyline fill="none" stroke="black" points="1183.79,-163 1183.79,-210.5"/>
<text text-anchor="middle" x="1222.54" y="-189.2" font-family="Times New Roman,serif" font-size="14.00">$42</text>
<text text-anchor="middle" x="1222.54" y="-173.45" font-family="Times New Roman,serif" font-size="14.00">$logic_and</text>
<polyline fill="none" stroke="black" points="1261.29,-163 1261.29,-210.5"/>
<text text-anchor="middle" x="1274.17" y="-181.7" font-family="Times New Roman,serif" font-size="14.00">Y</text>
</g>
<!-- n12&#45;&gt;c23 -->
<g id="edge9" class="edge">
<title>n12:e&#45;&gt;c23:w</title>
<path fill="none" stroke="#66a61e" d="M509,-157.75C513.46,-157.75 662.44,-187.01 666.85,-187.75 724.98,-197.48 739.15,-206.75 798.1,-206.75 798.1,-206.75 798.1,-206.75 1058.67,-206.75 1099,-206.75 1111.53,-200.02 1146.86,-198.81"/>
<polygon fill="#66a61e" stroke="#66a61e" points="1146.59,-202.32 1156.53,-198.65 1146.47,-195.32 1146.59,-202.32"/>
</g>
<!-- n12&#45;&gt;c26 -->
<g id="edge10" class="edge">
<title>n12:e&#45;&gt;c26:w</title>
<path fill="none" stroke="#66a61e" d="M509,-157.75C575.47,-157.75 594.29,-144.51 655.37,-143.01"/>
<polygon fill="#66a61e" stroke="#66a61e" points="655.37,-146.51 665.33,-142.89 655.29,-139.51 655.37,-146.51"/>
</g>
<!-- n13 -->
<g id="node11" class="node">
<title>n13</title>
<polygon fill="none" stroke="black" points="1620.47,-140.75 1546.14,-122.75 1620.47,-104.75 1694.81,-122.75 1620.47,-140.75"/>
<text text-anchor="middle" x="1620.47" y="-117.33" font-family="Times New Roman,serif" font-size="14.00">saved_data</text>
</g>
<!-- c28 -->
<g id="node18" class="node">
<title>c28</title>
<polygon fill="none" stroke="black" points="1760.81,-75.25 1760.81,-170.25 2016.56,-170.25 2016.56,-75.25 1760.81,-75.25"/>
<text text-anchor="middle" x="1794.31" y="-117.45" font-family="Times New Roman,serif" font-size="14.00">cmd_buf</text>
<polyline fill="none" stroke="black" points="1827.81,-75.25 1827.81,-170.25"/>
<text text-anchor="middle" x="1887.18" y="-125.2" font-family="Times New Roman,serif" font-size="14.00">disp</text>
<text text-anchor="middle" x="1887.18" y="-109.45" font-family="Times New Roman,serif" font-size="14.00">command_display</text>
<polyline fill="none" stroke="black" points="1946.56,-75.25 1946.56,-170.25"/>
<text text-anchor="middle" x="1981.56" y="-152.95" font-family="Times New Roman,serif" font-size="14.00">display_0</text>
<polyline fill="none" stroke="black" points="1946.56,-146.5 2016.56,-146.5"/>
<text text-anchor="middle" x="1981.56" y="-129.2" font-family="Times New Roman,serif" font-size="14.00">display_1</text>
<polyline fill="none" stroke="black" points="1946.56,-122.75 2016.56,-122.75"/>
<text text-anchor="middle" x="1981.56" y="-105.45" font-family="Times New Roman,serif" font-size="14.00">display_2</text>
<polyline fill="none" stroke="black" points="1946.56,-99 2016.56,-99"/>
<text text-anchor="middle" x="1981.56" y="-81.7" font-family="Times New Roman,serif" font-size="14.00">display_3</text>
</g>
<!-- n13&#45;&gt;c28 -->
<g id="edge12" class="edge">
<title>n13:e&#45;&gt;c28:w</title>
<path fill="none" stroke="#7570b3" stroke-width="3" d="M1694.81,-122.75C1719.9,-122.75 1728.89,-122.84 1749.33,-122.87"/>
<polygon fill="#7570b3" stroke="#7570b3" stroke-width="3" points="1746.26,-126.37 1756.27,-122.87 1746.27,-119.37 1746.26,-126.37"/>
<text text-anchor="middle" x="1727.81" y="-125.2" font-family="Times New Roman,serif" font-size="14.00" fill="#000000">&lt;12&gt;</text>
</g>
<!-- n13&#45;&gt;c29 -->
<g id="edge13" class="edge">
<title>n13:e&#45;&gt;c29:w</title>
<path fill="none" stroke="#7570b3" stroke-width="3" d="M1694.81,-122.75C1721.33,-122.75 1694.91,-221.17 1712.81,-240.75 1737.71,-268 1757.13,-263.98 1790.74,-262.94"/>
<polygon fill="#7570b3" stroke="#7570b3" stroke-width="3" points="1787.7,-266.49 1797.64,-262.83 1787.58,-259.49 1787.7,-266.49"/>
<text text-anchor="middle" x="1727.81" y="-262.2" font-family="Times New Roman,serif" font-size="14.00" fill="#000000">&lt;12&gt;</text>
</g>
<!-- n14 -->
<g id="node12" class="node">
<title>n14</title>
<polygon fill="none" stroke="black" points="887.19,-170.75 817.1,-152.75 887.19,-134.75 957.29,-152.75 887.19,-170.75"/>
<text text-anchor="middle" x="887.19" y="-147.32" font-family="Times New Roman,serif" font-size="14.00">saved_rdy</text>
</g>
<!-- c24 -->
<g id="node15" class="node">
<title>c24</title>
<polygon fill="none" stroke="black" points="994.29,-138 994.29,-177.5 1121.04,-177.5 1121.04,-138 994.29,-138"/>
<text text-anchor="middle" x="1007.17" y="-152.7" font-family="Times New Roman,serif" font-size="14.00">A</text>
<polyline fill="none" stroke="black" points="1020.04,-138 1020.04,-177.5"/>
<text text-anchor="middle" x="1057.67" y="-160.2" font-family="Times New Roman,serif" font-size="14.00">$41</text>
<text text-anchor="middle" x="1057.67" y="-144.45" font-family="Times New Roman,serif" font-size="14.00">$logic_not</text>
<polyline fill="none" stroke="black" points="1095.29,-138 1095.29,-177.5"/>
<text text-anchor="middle" x="1108.17" y="-152.7" font-family="Times New Roman,serif" font-size="14.00">Y</text>
</g>
<!-- n14&#45;&gt;c24 -->
<g id="edge15" class="edge">
<title>n14:e&#45;&gt;c24:w</title>
<path fill="none" stroke="#666666" d="M957.29,-152.75C969.36,-152.75 974.65,-155.59 983.02,-157.14"/>
<polygon fill="#666666" stroke="#666666" points="982.52,-160.61 992.78,-157.99 983.13,-153.64 982.52,-160.61"/>
</g>
<!-- c19&#45;&gt;n13 -->
<g id="edge11" class="edge">
<title>c19:e&#45;&gt;n13:w</title>
<path fill="none" stroke="#7570b3" stroke-width="3" d="M1480.14,-120C1505.26,-120 1514.22,-122.01 1534.66,-122.59"/>
<polygon fill="#7570b3" stroke="#7570b3" stroke-width="3" points="1531.55,-126.05 1541.6,-122.69 1531.65,-119.05 1531.55,-126.05"/>
<text text-anchor="middle" x="1513.14" y="-124.2" font-family="Times New Roman,serif" font-size="14.00" fill="#000000">&lt;12&gt;</text>
</g>
<!-- n1 -->
<g id="node21" class="node">
<title>n1</title>
<ellipse fill="black" stroke="black" cx="1325.84" cy="-186.75" rx="1.8" ry="1.8"/>
</g>
<!-- c23&#45;&gt;n1 -->
<g id="edge1" class="edge">
<title>c23:e&#45;&gt;n1:w</title>
<path fill="none" stroke="#7570b3" d="M1287.04,-187.12C1298.86,-187.12 1304.31,-186.93 1312.54,-186.82"/>
<polygon fill="#7570b3" stroke="#7570b3" points="1312.55,-190.32 1322.53,-186.76 1312.51,-183.32 1312.55,-190.32"/>
</g>
<!-- c24&#45;&gt;c23 -->
<g id="edge16" class="edge">
<title>c24:e&#45;&gt;c23:w</title>
<path fill="none" stroke="#d95f02" d="M1121.04,-158.12C1134.44,-158.12 1138.39,-167.35 1146.91,-172.11"/>
<polygon fill="#d95f02" stroke="#d95f02" points="1146.02,-175.49 1156.57,-174.51 1147.71,-168.7 1146.02,-175.49"/>
</g>
<!-- c25&#45;&gt;n10 -->
<g id="edge4" class="edge">
<title>c25:e&#45;&gt;n10:w</title>
<path fill="none" stroke="#66a61e" d="M1480.02,-240.12C1507.47,-240.12 1517.07,-239.84 1539.78,-239.77"/>
<polygon fill="#66a61e" stroke="#66a61e" points="1539.74,-243.27 1549.73,-239.75 1539.73,-236.27 1539.74,-243.27"/>
</g>
<!-- c26&#45;&gt;n14 -->
<g id="edge14" class="edge">
<title>c26:e&#45;&gt;n14:w</title>
<path fill="none" stroke="#666666" d="M780.1,-155.12C792.07,-155.12 797.48,-153.87 805.86,-153.19"/>
<polygon fill="#666666" stroke="#666666" points="805.73,-156.69 815.58,-152.81 805.45,-149.7 805.73,-156.69"/>
</g>
<!-- c28&#45;&gt;n4 -->
<g id="edge22" class="edge">
<title>c28:e&#45;&gt;n4:w</title>
<path fill="none" stroke="#7570b3" stroke-width="3" d="M2016.56,-158.38C2031.16,-158.38 2054.24,-188.91 2071.89,-199.88"/>
<polygon fill="#7570b3" stroke="#7570b3" stroke-width="3" points="2067.69,-202.08 2078.29,-202.2 2070.08,-195.5 2067.69,-202.08"/>
<text text-anchor="middle" x="2049.56" y="-196.2" font-family="Times New Roman,serif" font-size="14.00" fill="#000000">&lt;7&gt;</text>
</g>
<!-- c28&#45;&gt;n5 -->
<g id="edge23" class="edge">
<title>c28:e&#45;&gt;n5:w</title>
<path fill="none" stroke="#e7298a" stroke-width="3" d="M2016.56,-134.62C2042.42,-134.62 2050.35,-145.8 2071.17,-148.94"/>
<polygon fill="#e7298a" stroke="#e7298a" stroke-width="3" points="2067.8,-152.21 2078.03,-149.43 2068.3,-145.22 2067.8,-152.21"/>
<text text-anchor="middle" x="2049.56" y="-149.2" font-family="Times New Roman,serif" font-size="14.00" fill="#000000">&lt;7&gt;</text>
</g>
<!-- c28&#45;&gt;n6 -->
<g id="edge24" class="edge">
<title>c28:e&#45;&gt;n6:w</title>
<path fill="none" stroke="#d95f02" stroke-width="3" d="M2016.56,-110.88C2042.42,-110.88 2050.35,-99.7 2071.17,-96.56"/>
<polygon fill="#d95f02" stroke="#d95f02" stroke-width="3" points="2068.3,-100.28 2078.03,-96.07 2067.8,-93.29 2068.3,-100.28"/>
<text text-anchor="middle" x="2049.56" y="-111.2" font-family="Times New Roman,serif" font-size="14.00" fill="#000000">&lt;7&gt;</text>
</g>
<!-- c28&#45;&gt;n7 -->
<g id="edge25" class="edge">
<title>c28:e&#45;&gt;n7:w</title>
<path fill="none" stroke="#e6ab02" stroke-width="3" d="M2016.56,-87.12C2031.16,-87.12 2054.24,-56.59 2071.89,-45.62"/>
<polygon fill="#e6ab02" stroke="#e6ab02" stroke-width="3" points="2070.08,-50 2078.29,-43.3 2067.69,-43.42 2070.08,-50"/>
<text text-anchor="middle" x="2049.56" y="-80.2" font-family="Times New Roman,serif" font-size="14.00" fill="#000000">&lt;7&gt;</text>
</g>
<!-- c29&#45;&gt;n9 -->
<g id="edge27" class="edge">
<title>c29:e&#45;&gt;n9:w</title>
<path fill="none" stroke="#e6ab02" stroke-width="3" d="M1975.18,-263C2028.4,-263 2044.51,-262.78 2092.51,-262.75"/>
<polygon fill="#e6ab02" stroke="#e6ab02" stroke-width="3" points="2089.44,-266.25 2099.44,-262.75 2089.44,-259.25 2089.44,-266.25"/>
<text text-anchor="middle" x="2049.56" y="-265.2" font-family="Times New Roman,serif" font-size="14.00" fill="#000000">&lt;10&gt;</text>
</g>
<!-- c33&#45;&gt;n11 -->
<g id="edge6" class="edge">
<title>c33:e&#45;&gt;n11:w</title>
<path fill="none" stroke="#e7298a" stroke-width="3" d="M271.75,-112.62C381.36,-112.62 411.48,-106.21 515.65,-105.77"/>
<polygon fill="#e7298a" stroke="#e7298a" stroke-width="3" points="512.46,-109.28 522.46,-105.76 512.45,-102.28 512.46,-109.28"/>
<text text-anchor="middle" x="304.75" y="-114.2" font-family="Times New Roman,serif" font-size="14.00" fill="#000000">&lt;12&gt;</text>
</g>
<!-- c33&#45;&gt;n12 -->
<g id="edge8" class="edge">
<title>c33:e&#45;&gt;n12:w</title>
<path fill="none" stroke="#66a61e" d="M271.75,-88.88C293.53,-88.88 303.65,-84.08 319.75,-98.75 335.9,-113.46 320.33,-142.19 327.21,-153.26"/>
<polygon fill="#66a61e" stroke="#66a61e" points="325.79,-156.45 336.36,-157.16 328.53,-150.01 325.79,-156.45"/>
</g>
<!-- n1&#45;&gt;c19 -->
<g id="edge2" class="edge">
<title>n1:e&#45;&gt;c19:w</title>
<path fill="none" stroke="#7570b3" d="M1327.64,-186.75C1366.6,-186.75 1330.61,-114.13 1353.77,-98.82"/>
<polygon fill="#7570b3" stroke="#7570b3" points="1354.37,-102.27 1363.18,-96.38 1352.62,-95.5 1354.37,-102.27"/>
</g>
<!-- n1&#45;&gt;c25 -->
<g id="edge3" class="edge">
<title>n1:e&#45;&gt;c25:w</title>
<path fill="none" stroke="#7570b3" d="M1327.64,-186.75C1347.65,-186.75 1343.4,-213.9 1354.31,-224.08"/>
<polygon fill="#7570b3" stroke="#7570b3" points="1352.75,-227.24 1363.34,-227.36 1355.14,-220.66 1352.75,-227.24"/>
</g>
</g>
</svg>
