<svg aria-roledescription="stateDiagram" role="graphics-document document" viewBox="-8 -8 1025.625 431" style="max-width: 1025.62px; background-color: white;" class="statediagram" xmlns:xlink="http://www.w3.org/1999/xlink" xmlns="http://www.w3.org/2000/svg" width="100%" id="my-svg"><style>#my-svg{font-family:"trebuchet ms",verdana,arial,sans-serif;font-size:16px;fill:#333;}#my-svg .error-icon{fill:#552222;}#my-svg .error-text{fill:#552222;stroke:#552222;}#my-svg .edge-thickness-normal{stroke-width:2px;}#my-svg .edge-thickness-thick{stroke-width:3.5px;}#my-svg .edge-pattern-solid{stroke-dasharray:0;}#my-svg .edge-pattern-dashed{stroke-dasharray:3;}#my-svg .edge-pattern-dotted{stroke-dasharray:2;}#my-svg .marker{fill:#333333;stroke:#333333;}#my-svg .marker.cross{stroke:#333333;}#my-svg svg{font-family:"trebuchet ms",verdana,arial,sans-serif;font-size:16px;}#my-svg defs #statediagram-barbEnd{fill:#333333;stroke:#333333;}#my-svg g.stateGroup text{fill:#9370DB;stroke:none;font-size:10px;}#my-svg g.stateGroup text{fill:#333;stroke:none;font-size:10px;}#my-svg g.stateGroup .state-title{font-weight:bolder;fill:#131300;}#my-svg g.stateGroup rect{fill:#ECECFF;stroke:#9370DB;}#my-svg g.stateGroup line{stroke:#333333;stroke-width:1;}#my-svg .transition{stroke:#333333;stroke-width:1;fill:none;}#my-svg .stateGroup .composit{fill:white;border-bottom:1px;}#my-svg .stateGroup .alt-composit{fill:#e0e0e0;border-bottom:1px;}#my-svg .state-note{stroke:#aaaa33;fill:#fff5ad;}#my-svg .state-note text{fill:black;stroke:none;font-size:10px;}#my-svg .stateLabel .box{stroke:none;stroke-width:0;fill:#ECECFF;opacity:0.5;}#my-svg .edgeLabel .label rect{fill:#ECECFF;opacity:0.5;}#my-svg .edgeLabel .label text{fill:#333;}#my-svg .label div .edgeLabel{color:#333;}#my-svg .stateLabel text{fill:#131300;font-size:10px;font-weight:bold;}#my-svg .node circle.state-start{fill:#333333;stroke:#333333;}#my-svg .node .fork-join{fill:#333333;stroke:#333333;}#my-svg .node circle.state-end{fill:#9370DB;stroke:white;stroke-width:1.5;}#my-svg .end-state-inner{fill:white;stroke-width:1.5;}#my-svg .node rect{fill:#ECECFF;stroke:#9370DB;stroke-width:1px;}#my-svg .node polygon{fill:#ECECFF;stroke:#9370DB;stroke-width:1px;}#my-svg #statediagram-barbEnd{fill:#333333;}#my-svg .statediagram-cluster rect{fill:#ECECFF;stroke:#9370DB;stroke-width:1px;}#my-svg .cluster-label,#my-svg .nodeLabel{color:#131300;}#my-svg .statediagram-cluster rect.outer{rx:5px;ry:5px;}#my-svg .statediagram-state .divider{stroke:#9370DB;}#my-svg .statediagram-state .title-state{rx:5px;ry:5px;}#my-svg .statediagram-cluster.statediagram-cluster .inner{fill:white;}#my-svg .statediagram-cluster.statediagram-cluster-alt .inner{fill:#f0f0f0;}#my-svg .statediagram-cluster .inner{rx:0;ry:0;}#my-svg .statediagram-state rect.basic{rx:5px;ry:5px;}#my-svg .statediagram-state rect.divider{stroke-dasharray:10,10;fill:#f0f0f0;}#my-svg .note-edge{stroke-dasharray:5;}#my-svg .statediagram-note rect{fill:#fff5ad;stroke:#aaaa33;stroke-width:1px;rx:0;ry:0;}#my-svg .statediagram-note rect{fill:#fff5ad;stroke:#aaaa33;stroke-width:1px;rx:0;ry:0;}#my-svg .statediagram-note text{fill:black;}#my-svg .statediagram-note .nodeLabel{color:black;}#my-svg .statediagram .edgeLabel{color:red;}#my-svg #dependencyStart,#my-svg #dependencyEnd{fill:#333333;stroke:#333333;stroke-width:1;}#my-svg .statediagramTitleText{text-anchor:middle;font-size:18px;fill:#333;}#my-svg :root{--mermaid-font-family:"trebuchet ms",verdana,arial,sans-serif;}</style><g><defs><marker orient="auto" markerUnits="strokeWidth" markerHeight="14" markerWidth="20" refY="7" refX="19" id="my-svg_statediagram-barbEnd"><path d="M 19,7 L9,13 L14,7 L9,1 Z"/></marker></defs><g class="root"><g class="clusters"/><g class="edgePaths"><path marker-end="url(#my-svg_statediagram-barbEnd)" style="fill:none" class="edge-thickness-normal transition" id="edge0" d="M367.969,22L367.969,26.167C367.969,30.333,367.969,38.667,367.969,47C367.969,55.333,367.969,63.667,367.969,67.833L367.969,72"/><path marker-end="url(#my-svg_statediagram-barbEnd)" style="fill:none" class="edge-thickness-normal transition" id="edge1" d="M336.742,94.163L290.036,101.886C243.331,109.609,149.919,125.054,112.3,138.527C74.682,152,92.855,163.5,101.942,169.25L111.029,175"/><path marker-end="url(#my-svg_statediagram-barbEnd)" style="fill:none" class="edge-thickness-normal transition" id="edge2" d="M137.895,209L137.895,214.75C137.895,220.5,137.895,232,166.956,244.255C196.018,256.51,254.142,269.521,283.204,276.026L312.266,282.531"/><path marker-end="url(#my-svg_statediagram-barbEnd)" style="fill:none" class="edge-thickness-normal transition" id="edge3" d="M164.76,175L173.847,169.25C182.934,163.5,201.108,152,229.771,139.469C258.435,126.939,297.589,113.377,317.165,106.596L336.742,99.816"/><path marker-end="url(#my-svg_statediagram-barbEnd)" style="fill:none" class="edge-thickness-normal transition" id="edge4" d="M367.969,278L367.969,272.25C367.969,266.5,367.969,255,367.969,240.667C367.969,226.333,367.969,209.167,367.969,192C367.969,174.833,367.969,157.667,367.969,143.333C367.969,129,367.969,117.5,367.969,111.75L367.969,106"/><path marker-end="url(#my-svg_statediagram-barbEnd)" style="fill:none" class="edge-thickness-normal transition" id="edge5" d="M312.266,306.969L281.604,313.558C250.943,320.146,189.62,333.323,221.024,347.558C252.428,361.793,376.56,377.085,438.626,384.732L500.691,392.378"/><path marker-end="url(#my-svg_statediagram-barbEnd)" style="fill:none" class="edge-thickness-normal transition" id="edge6" d="M423.672,279.808L445.859,273.757C468.047,267.705,512.422,255.603,534.609,240.968C556.797,226.333,556.797,209.167,556.797,192C556.797,174.833,556.797,157.667,530.53,141.919C504.263,126.172,451.729,111.844,425.462,104.68L399.195,97.517"/><path marker-end="url(#my-svg_statediagram-barbEnd)" style="fill:none" class="edge-thickness-normal transition" id="edge7" d="M549.781,381L550.95,375.25C552.12,369.5,554.458,358,533.44,346.199C512.422,334.397,468.047,322.295,445.859,316.243L423.672,310.192"/><path marker-end="url(#my-svg_statediagram-barbEnd)" style="fill:none" class="edge-thickness-normal transition" id="edge8" d="M591.957,388.481L625.499,381.484C659.042,374.487,726.126,360.494,759.669,344.914C793.211,329.333,793.211,312.167,793.211,295C793.211,277.833,793.211,260.667,793.211,243.5C793.211,226.333,793.211,209.167,793.211,192C793.211,174.833,793.211,157.667,727.542,141.13C661.872,124.594,530.534,108.688,464.865,100.735L399.195,92.782"/></g><g class="edgeLabels"><g class="edgeLabel"><g transform="translate(0, 0)" class="label"><rect height="0" width="0" ry="0" rx="0"/><text style=""><tspan class="row" x="0" dy="1em" xml:space="preserve"/></text></g></g><g transform="translate(56.5078125, 140.5)" class="edgeLabel"><g transform="translate(-14.0859375, -9.5)" class="label"><rect height="18.315200805664062" width="28.329010009765625" ry="0" rx="0"/><text style=""><tspan class="row" x="0" dy="1em" xml:space="preserve">ir=0</tspan></text></g></g><g transform="translate(137.89453125, 243.5)" class="edgeLabel"><g transform="translate(-128.6875, -9.5)" class="label"><rect height="18.315200805664062" width="256.53546142578125" ry="0" rx="0"/><text style=""><tspan class="row" x="0" dy="1em" xml:space="preserve">ir=1 &amp;&amp; t∈[BASE4_MIN, BASE4_MAX]</tspan></text></g></g><g transform="translate(219.28125, 140.5)" class="edgeLabel"><g transform="translate(-128.6875, -9.5)" class="label"><rect height="18.315200805664062" width="257.84368896484375" ry="0" rx="0"/><text style=""><tspan class="row" x="0" dy="1em" xml:space="preserve">ir=1 &amp;&amp; t∉[BASE4_MIN, BASE4_MAX]</tspan></text></g></g><g transform="translate(367.96875, 192)" class="edgeLabel"><g transform="translate(-48.53125, -9.5)" class="label"><rect height="18.315200805664062" width="96.21800231933594" ry="0" rx="0"/><text style=""><tspan class="row" x="0" dy="1em" xml:space="preserve">t&gt;BASE2_MAX</tspan></text></g></g><g transform="translate(128.296875, 346.5)" class="edgeLabel"><g transform="translate(-120.296875, -9.5)" class="label"><rect height="18.315200805664062" width="239.7533416748047" ry="0" rx="0"/><text style=""><tspan class="row" x="0" dy="1em" xml:space="preserve">ir=0 &amp;&amp; t∈[BASE_MIN, BASE_MAX]</tspan></text></g></g><g transform="translate(556.796875, 192)" class="edgeLabel"><g transform="translate(-120.296875, -9.5)" class="label"><rect height="18.315200805664062" width="241.0615692138672" ry="0" rx="0"/><text style=""><tspan class="row" x="0" dy="1em" xml:space="preserve">ir=0 &amp;&amp; t∉[BASE_MIN, BASE_MAX]</tspan></text></g></g><g transform="translate(556.796875, 346.5)" class="edgeLabel"><g transform="translate(-216.4140625, -9.5)" class="label"><rect height="18.315200805664062" width="431.44970703125" ry="0" rx="0"/><text style=""><tspan class="row" x="0" dy="1em" xml:space="preserve">ir=1 &amp;&amp; t∈[BASE_MIN, BASE_MAX]∪[BASE2_MIN, BASE2_MAX]</tspan></text></g></g><g transform="translate(793.2109375, 243.5)" class="edgeLabel"><g transform="translate(-216.4140625, -9.5)" class="label"><rect height="18.315200805664062" width="432.7579345703125" ry="0" rx="0"/><text style=""><tspan class="row" x="0" dy="1em" xml:space="preserve">ir=1 &amp;&amp; t∉[BASE_MIN, BASE_MAX]∪[BASE2_MIN, BASE2_MAX]</tspan></text></g></g></g><g class="nodes"><g transform="translate(367.96875, 89)" data-id="idle" data-node="true" id="state-idle-8" class="node  statediagram-state undefined"><rect height="34" width="62.453125" y="-17" x="-31.2265625" style="" class="basic label-container"/><g transform="translate(-23.7265625, -9.5)" style="" class="label"><rect/><text style=""><tspan class="row" x="0" dy="1em" xml:space="preserve">S_IDLE</tspan></text></g></g><g transform="translate(137.89453125, 192)" data-id="start" data-node="true" id="state-start-3" class="node  statediagram-state undefined"><rect height="34" width="74.609375" y="-17" x="-37.3046875" style="" class="basic label-container"/><g transform="translate(-29.8046875, -9.5)" style="" class="label"><rect/><text style=""><tspan class="row" x="0" dy="1em" xml:space="preserve">S_START</tspan></text></g></g><g transform="translate(367.96875, 295)" data-id="pause" data-node="true" id="state-pause-7" class="node  statediagram-state undefined"><rect height="34" width="111.40625" y="-17" x="-55.703125" style="" class="basic label-container"/><g transform="translate(-48.203125, -9.5)" style="" class="label"><rect/><text style=""><tspan class="row" x="0" dy="1em" xml:space="preserve">S_RCV_PAUSE</tspan></text></g></g><g transform="translate(546.32421875, 398)" data-id="bit" data-node="true" id="state-bit-8" class="node  statediagram-state undefined"><rect height="34" width="91.265625" y="-17" x="-45.6328125" style="" class="basic label-container"/><g transform="translate(-38.1328125, -9.5)" style="" class="label"><rect/><text style=""><tspan class="row" x="0" dy="1em" xml:space="preserve">S_RCV_BIT</tspan></text></g></g><g transform="translate(367.96875, 15)" data-id="root_start" data-node="true" id="state-root_start-0" class="node default"><circle height="14" width="14" r="7" class="state-start"/></g></g></g></g></svg>